<?xml version="1.0" encoding="utf-8"?>
<!-- Generator: Adobe Illustrator 26.0.1, SVG Export Plug-In . SVG Version: 6.00 Build 0)  -->
<svg version="1.1" id="Layer_1" xmlns="http://www.w3.org/2000/svg" xmlns:xlink="http://www.w3.org/1999/xlink" x="0px" y="0px"
	 viewBox="0 0 1024 1024" style="enable-background:new 0 0 1024 1024;" xml:space="preserve">
<style type="text/css">
	.st0{fill:#FFFFFF;}
</style>
<g>
	<path class="st0" d="M805,845.35c-16.87-16.67-18.93-17.75-40.86-0.48c-7.82,6.16-15.03,8.8-24.57,7c-4.06-0.77-9.48-6.87-12.4,0.9
		c-2.72,7.24-2.48,14.73,4.4,20.12c2.09,1.64,4.87,2.39,7.34,3.55c0.26,1.96,0.06,3.37-2.44,2.02
		c-11.71-0.98-15.88-8.69-16.76-19.08c-0.57-6.71,0.8-13.24,2.48-19.74c1.62-6.27-1.25-9.93-7.47-10.53
		c-8.57-0.83-17.2-1.78-25.45,2.06c-4.26,1.98-8.78,3.42-12.93,5.58c-26.64,13.85-53.26,14.48-79.75-0.17
		c-10.33,21.08-2.86,35.68,19.73,39.42c4.25,0.71,8.51,1.37,12.76,2.07c18.52,3.07,23.32,7.23,26.43,25.91
		c1.1,6.59,3.11,9.04,9.89,9.76c12.71,1.36,23.75,7.82,34.4,14.39c17.87,11.04,36.61,16.35,57.07,9.17
		c12.18-4.28,24.05,1.67,36.02-0.37c2.62-1.02,3.06,0.31,2.69,2.5c-2.79,1.37-5.77,4.2-8.35,3.88c-16.47-2.07-30.4,6.09-45.34,10.24
		c-17.18,4.78-33.29-0.6-49.36-6.15c-10.24-3.53-20.2-8.69-31.52-7.7c-1.49,4.8,1.68,7.87,2.72,11.5c0.86,2.13,0.11,2.86-2.05,2.35
		c-9.04-10.87-10.55-24.3-11.99-37.49c-2.58-23.6-6.11-27.68-29.81-28.1c-13.13-0.23-25.25-7.45-39.26-3.27
		c-7.68,2.29-12.2,4.95-12.43,12.6c-0.3,10.51-8.9,20.59-1.32,31.57c2.87,4.16,5.52,6.95,11.22,6.66c4.99-0.26,10.11,0.95,15.1,1.86
		c21.73,3.98,30.39,17.47,25.03,38.92c-1.41,5.66-3.14,11.24-4.87,17.34c-4.66-5.36-1.93-11.21-1.97-16.71
		c-0.11-16.34-3.01-26.32-22.55-23.67c-2.71,0.37-5.69-0.17-8.17,0.73c-15.33,5.59-25.97-1.94-34.78-12.86
		c-4.2-5.21-8.07-6.45-13.71-3.52c-2.82,1.09-3.33-0.37-3.02-2.74c18.61-9.51,26.94-23.48,22.93-45.22
		c-2.22-12,5.43-20.95,16.89-25.25c5.59-2.1,7.98-4.83,7.3-11.07c-1.35-12.37,4.28-23.77,5.89-35.77
		c1.69-12.6-2.6-21.99-13.24-29.07c-5.15-3.43-7.81-3.44-10.47,2.67c-4.38,10.06-11.98,17.5-21.96,21.95
		c-7.7,3.43-10.35,9.24-9.61,16.91c1.01,10.51,2.76,20.96,3.71,31.48c1.01,11.07,3.45,22.54-7.56,34.92
		c8.34-26.84-6.32-47.69-6.76-70.74c-12.3,4.19-15.56,8.69-19.81,26.4c0.69,2.41,2.03,5.16-2.53,4.82
		c-4.77-15.85-0.49-29.44,11.07-40.65c7.87-7.63,16.76-14.22,24.68-21.8c6.36-6.09,10.27-15.77,6.15-22.36
		c-4.59-7.34-10.9-16.06-23-15.42c-7.64,0.4-10.4,3.84-11.75,10.19c-2.68,12.66-5.15,25.55-11.33,36.93
		c-8.71,16.04-18.84,31.38-31.65,44.46c-5.6,5.72-6.19,10.32-1.73,16.27c2.82,3.77,5.95,7.32,8.52,11.25
		c9.62,14.7,10.12,32.76-2.76,44.27c-18.84,16.85-24.71,35.19-15.65,58.63c0.92,2.39,0.2,5.41,0.24,8.14
		c-0.81,1.09-1.49,0.96-2.06-0.22c-2.27-6.64-4.45-13.32-6.82-19.93c-4.2-11.69-4.78-23.47,0.43-35.61
		c-7.07,0.37-8.52,4.82-10.23,8.56c-1.62,3.53-3.39,7.39-3.48,11.14c-0.75,30.21-19.36,43.89-45.92,50.46
		c-2.66,0.93-3.22-0.34-2.79-2.66c22.71-11.49,36.16-28.09,31.68-55.37c-0.71-4.33,1.22-9.28,2.58-13.75
		c5.19-16.96,15.49-23.91,33.21-23.28c4.02,0.14,9.48,3.08,11.86-1.63c2.58-5.11,0.76-10.91-2.72-15.48
		c-2.82-3.71-6.31-6.92-9.58-10.29c-10.79-11.11-13.46-18.87-11.39-34.91c-16.5,4.36-32.41,8.87-46.79,17.58
		c-13.31,8.07-18.95,21.22-19.64,35.63c-1.26,26.46-16.59,41.07-38.93,50.79c-6.8,2.96-13.67,5.78-20.5,8.66
		c-2.59,0.99-3.12-0.29-2.78-2.52c12.96-8.02,27.7-13.27,38.78-24.15c3.95-3.88,11.53-9.48,7.64-14
		c-4.28-4.98-13.04-3.38-19.23,1.32c-2.16,1.65-4.63,3.32-5.96,5.58c-9.55,16.18-18.99,14.25-31.78,7.33
		c-19.18-10.37-37.71-10.9-57.15-1.38c-12.81,6.28-25.84,5.27-38.49-1.14c-0.7-0.56-0.93-1.12-0.7-1.68
		c0.23-0.56,0.46-0.84,0.69-0.84c14.94,3.93,28.71,1.19,41.42-7.37c17.07-11.5,35.32-11.97,54.02-5.27
		c7.87,2.82,13.07,2.77,18.05-5.54c7.62-12.74,20.35-18.29,34.95-18.29c7.69,0,11.31-2.47,12.35-10.29c0.6-4.5,3.06-8.89,5.27-13.01
		c5.24-9.79,4.78-10.64-6.76-10.86c-14.79-0.28-28.55,4.96-42.65,8.17c-11.34,2.58-21.87,1.27-31.88-4.2
		c-11.71-6.4-20.95-16.5-33.3-22.07c-12.24-5.53-26-5.38-38.12-11.36c20.18,0.67,41.11-0.47,58.58,11.72
		c18.57,12.96,36.48,13.76,56.17,3.3c10.74-5.71,22.61-8.94,34.99-9.3c5.89-0.17,12.54-1.16,17.26,2.34
		c12.92,9.59,24.42,3.8,36.53-1.44c15.71-6.8,32.37-11.55,49.61-23.15c-23.17-1.4-39.74-16.11-60.76-14.58
		c-2.57,0.98-3.15-0.28-2.85-2.53c10.43-5.44,20.74-1.8,31.02,0.52c9.54,2.15,18.84,5.48,28.9,4.61
		c7.81-0.67,11.81-4.29,12.86-12.36c9.83-75.49,27.17-149.76,36.63-225.31c2.49-19.86,4.47-39.8,7.39-59.6
		c1.18-8.06-4.08-12.41-7.89-17.51c-35.36-47.34-78.72-86.48-125.93-121.54c-35.02-26.01-71.69-49.47-111.21-70.05
		c5.07-4.92,14.98-1.69,16.69-10.48c1.34-6.87-2.2-12.96-3.6-19.59c33.61,11.55,119.49,79.3,233.99,184.64
		c-9.02-52.75-14.02-104.14-15.14-155.84c-1.13-51.89,0.38-103.64,10.77-157.16c10.61,10.74,20.64,24.32,37.15,3.36
		c-10.55,54.01-14.45,103.81-13.24,154.09c1.21,50.2,8.72,99.19,25.75,148.93c55.85-71.79,113.95-139.63,186.25-195.67
		c2.35,22.92,2.35,22.92,19.16,28.06c-11.03,8.61-21.9,16.76-32.4,25.35c-66.76,54.63-126.29,115.6-168.66,191.72
		c-5.68,10.2-8.69,20.32-8.74,32.23c-0.32,73.88-1.11,147.76-2.33,221.63c-0.16,9.82,2.1,15.91,11.1,20.53
		c11.96,6.14,22.22,14.62,29.01,26.79c4.45,7.99,12.26,6.07,18.85,4.23c9.04-2.51,17.7-6.37,26.53-9.62
		c10-3.68,19.08-1.74,27.67,4.85c-27.06-10.83-42.85,19.22-67.39,17.41c6.6,14.22,31.23,24.13,50.91,20.23
		c9.2-1.82,18.26-4.6,27.19-7.54c12.87-4.24,25.45-3.57,38.11,0.63c5.46,1.81,9.84,4.7,12.25,10.18c5.5,12.52,15.95,15.29,27.6,7.66
		c3.58-2.35,7.54-4.18,11.45-5.95c18.31-8.28,28.68-4.22,37.34,14.5C806.74,846.14,805.88,846.16,805,845.35z"/>
	<path class="st0" d="M718.14,217.73c0.4,22.17-8.77,37.85-20.45,52.47c-1.89,2.37-3.67,5.1-7.43,1.7
		c-25.1-22.73-46.54-56.27-28.19-93.69c13.89-28.31,12.22-26.07,33.49-6.48C711.25,186.17,718.12,202.71,718.14,217.73z"/>
	<path class="st0" d="M349.06,446.82c-19.23,0.15-32.74-4.68-45.82-11.4c-5.31-2.73-6.43-5.18-3.01-10.81
		c24.47-40.32,74.57-51.07,112.39-23.85c3.05,2.2,5.92,3.73,2.21,8.05C396.29,430.43,374.56,446.01,349.06,446.82z"/>
	<path class="st0" d="M681.79,449.04c-18.77-0.66-37.06-12.63-53.11-29.1c-2.67-2.74-3.26-4.87,0.44-7.47
		c36.98-26.04,78.71-32.67,115.7,1.91c3.62,3.39,5.19,5.91,0.5,10.34C730.22,438.96,706.51,449.23,681.79,449.04z"/>
	<path class="st0" d="M438.4,512.88c-23.78-0.04-41.04-8.37-56.61-21.18c-4.55-3.74-3.81-6.2,0.01-10.25
		c32.62-34.58,79.45-35.94,114.06-3.26c4.74,4.47,5.62,6.91-0.36,11.38C477.5,503.02,458.1,512.24,438.4,512.88z"/>
	<path class="st0" d="M554.73,194.53c-1.17-52.47,40.11-71.89,75.3-73.66c7.5-0.38,6.98,4.34,7.23,9.07
		c1.68,31.88-15.55,58.44-46.73,71.69c-7.55,3.21-15.6,5.05-23.37,7.58c-10.71,3.49-13.32-0.46-12.46-10.08
		C554.91,196.78,554.73,194.42,554.73,194.53z"/>
	<path class="st0" d="M645.35,519.97c-24.64-0.56-43.02-12.37-59.14-28.87c-3.07-3.14-3.7-5.29,0.5-8.24
		c36.37-25.47,78.06-31.82,113.99,1.22c5.87,5.4,5.78,8.17-0.49,13.24C683.88,510.53,666.07,519.37,645.35,519.97z"/>
	<path class="st0" d="M407.8,191.05c38.55-1.29,76.9,31.04,81.27,68.3c0.49,4.16-0.82,5.17-4.66,6.08
		c-45.85,10.93-88.85-19.38-94.18-66.38c-0.58-5.09,0.56-7.3,5.81-7.28C399.97,191.79,403.89,191.31,407.8,191.05z"/>
	<path class="st0" d="M567.61,83.59c-0.32,22.23-13.56,38.79-29.94,53.65c-2.43,2.21-4.35,2.57-6.77-0.37
		c-26.77-32.4-37.71-75.63,0.32-111.32c2.6-2.44,4.88-5.05,8.74-1.1C555.77,40.6,567.65,58.51,567.61,83.59z"/>
	<path class="st0" d="M751.18,371.97c-18.95,0.29-35.59-8.85-51.32-20.39c-3.49-2.56-4.49-4.66-0.76-8.25
		c29.65-28.56,70.44-43.97,112.79-15.14c6.49,4.42,6.91,7.08,1.56,13.02C795.18,361.5,774.68,372.27,751.18,371.97z"/>
	<path class="st0" d="M281.8,378.48c-23.61-0.19-40.34-8.68-55.31-21.63c-3.93-3.4-3.65-5.46-0.01-9.21
		c31.74-32.76,77.85-33.26,109.78-0.95c3.18,3.22,6.46,5.57,0.55,9.84C319.28,369.17,300.49,378,281.8,378.48z"/>
	<path class="st0" d="M434.86,116.9c0.78-8.44,0.15-22.2,8.58-27.04c7.38-4.24,17.82,4.91,25.99,10.05
		c29.74,18.72,39.3,52.88,23.71,84.21c-1.2,2.41-1.33,5.8-6.44,4.37C460.19,181.11,434.5,147.09,434.86,116.9z"/>
	<path class="st0" d="M385.68,268.58c-0.16,8.45-0.81,25.07-10.77,29.83c-8.66,4.14-20.13-8.83-28.51-16.77
		c-21.31-20.19-26.99-44.81-16.81-70.61c1.26-3.19,1.26-7.86,7.56-6.59C361.99,209.42,385.6,238.24,385.68,268.58z"/>
	<path class="st0" d="M484.9,342.73c-0.36,14.37-0.94,31.41-10.75,35.83c-9.29,4.19-20.77-9.1-29.39-17.35
		c-20.5-19.6-25.77-42.98-16.4-69.86c2.38-6.84,5.31-8.07,11.97-4.92C465.17,298.21,484,314.26,484.9,342.73z"/>
	<path class="st0" d="M232.53,236.06c20.31,0.04,42.66,15.32,49.95,33.65c1.37,3.44,0.8,4.81-2.21,6.27
		c-27.19,13.21-62.37,16.15-85.43-17.53c-4.31-6.29-3.15-9.05,3.14-12.46C209.31,239.83,220.91,236.04,232.53,236.06z"/>
	<path class="st0" d="M775.05,258.73c-15.28,0.57-15.46,0.35-11.89-14.42c7.26-30.04,29.9-48.77,59.25-49.66
		c7.02-0.21,9.57,1.34,9.29,9.02C830.48,236.44,809.2,257.45,775.05,258.73z"/>
	<path class="st0" d="M555.51,281.78c-14.04,0.22-14.04,0.22-10.55-13.34c7.66-29.76,27.47-46.17,56.41-47.47
		c7.92-0.35,10.13,1.8,9.16,9.93C606.68,263.18,587.48,281.27,555.51,281.78z"/>
	<path class="st0" d="M656.59,291.46c-0.21,15.47-6.36,27.02-14.76,37.74c-2.5,3.19-4.25,3.11-7.55,0.66
		c-24.96-18.55-31.34-52.65-14.65-77.46c4.05-6.02,6.97-6.73,12.75-2.02C646.05,261.52,655.42,274.76,656.59,291.46z"/>
	<path class="st0" d="M600.47,365.47c0.41,14.27-6.35,25.61-14.62,36.34c-1.92,2.5-3.81,3.69-6.72,1.09
		c-20.25-18.06-35.93-47.89-15.01-78.44c4.38-6.4,7.2-6.19,12.61-1.58C590.04,334.21,600.25,346.99,600.47,365.47z"/>
</g>
</svg>
