<?xml version="1.0" encoding="utf-8"?>
<!-- Generator: Adobe Illustrator 26.0.1, SVG Export Plug-In . SVG Version: 6.00 Build 0)  -->
<svg version="1.1" id="Layer_1" xmlns="http://www.w3.org/2000/svg" xmlns:xlink="http://www.w3.org/1999/xlink" x="0px" y="0px"
	 viewBox="0 0 1024 1024" style="enable-background:new 0 0 1024 1024;" xml:space="preserve">
<style type="text/css">
	.st0{fill:#111827;}
</style>
<g>
	<path class="st0" d="M805,845.3c-16.9-16.7-18.9-17.8-40.9-0.5c-7.8,6.2-15,8.8-24.6,7c-4.1-0.8-9.5-6.9-12.4,0.9
		c-2.7,7.2-2.5,14.7,4.4,20.1c2.1,1.6,4.9,2.4,7.3,3.5c0.3,2,0.1,3.4-2.4,2c-11.7-1-15.9-8.7-16.8-19.1c-0.6-6.7,0.8-13.2,2.5-19.7
		c1.6-6.3-1.2-9.9-7.5-10.5c-8.6-0.8-17.2-1.8-25.5,2.1c-4.3,2-8.8,3.4-12.9,5.6c-26.6,13.8-53.3,14.5-79.8-0.2
		c-10.3,21.1-2.9,35.7,19.7,39.4c4.2,0.7,8.5,1.4,12.8,2.1c18.5,3.1,23.3,7.2,26.4,25.9c1.1,6.6,3.1,9,9.9,9.8
		c12.7,1.4,23.8,7.8,34.4,14.4c17.9,11,36.6,16.3,57.1,9.2c12.2-4.3,24,1.7,36-0.4c2.6-1,3.1,0.3,2.7,2.5c-2.8,1.4-5.8,4.2-8.3,3.9
		c-16.5-2.1-30.4,6.1-45.3,10.2c-17.2,4.8-33.3-0.6-49.4-6.2c-10.2-3.5-20.2-8.7-31.5-7.7c-1.5,4.8,1.7,7.9,2.7,11.5
		c0.9,2.1,0.1,2.9-2,2.3c-9-10.9-10.5-24.3-12-37.5c-2.6-23.6-6.1-27.7-29.8-28.1c-13.1-0.2-25.2-7.5-39.3-3.3
		c-7.7,2.3-12.2,5-12.4,12.6c-0.3,10.5-8.9,20.6-1.3,31.6c2.9,4.2,5.5,7,11.2,6.7c5-0.3,10.1,1,15.1,1.9c21.7,4,30.4,17.5,25,38.9
		c-1.4,5.7-3.1,11.2-4.9,17.3c-4.7-5.4-1.9-11.2-2-16.7c-0.1-16.3-3-26.3-22.5-23.7c-2.7,0.4-5.7-0.2-8.2,0.7
		c-15.3,5.6-26-1.9-34.8-12.9c-4.2-5.2-8.1-6.5-13.7-3.5c-2.8,1.1-3.3-0.4-3-2.7c18.6-9.5,26.9-23.5,22.9-45.2
		c-2.2-12,5.4-21,16.9-25.2c5.6-2.1,8-4.8,7.3-11.1c-1.3-12.4,4.3-23.8,5.9-35.8c1.7-12.6-2.6-22-13.2-29.1
		c-5.2-3.4-7.8-3.4-10.5,2.7c-4.4,10.1-12,17.5-22,22c-7.7,3.4-10.3,9.2-9.6,16.9c1,10.5,2.8,21,3.7,31.5c1,11.1,3.5,22.5-7.6,34.9
		c8.3-26.8-6.3-47.7-6.8-70.7c-12.3,4.2-15.6,8.7-19.8,26.4c0.7,2.4,2,5.2-2.5,4.8c-4.8-15.8-0.5-29.4,11.1-40.7
		c7.9-7.6,16.8-14.2,24.7-21.8c6.4-6.1,10.3-15.8,6.2-22.4c-4.6-7.3-10.9-16.1-23-15.4c-7.6,0.4-10.4,3.8-11.8,10.2
		c-2.7,12.7-5.1,25.5-11.3,36.9c-8.7,16-18.8,31.4-31.6,44.5c-5.6,5.7-6.2,10.3-1.7,16.3c2.8,3.8,6,7.3,8.5,11.2
		c9.6,14.7,10.1,32.8-2.8,44.3c-18.8,16.8-24.7,35.2-15.6,58.6c0.9,2.4,0.2,5.4,0.2,8.1c-0.8,1.1-1.5,1-2.1-0.2
		c-2.3-6.6-4.5-13.3-6.8-19.9c-4.2-11.7-4.8-23.5,0.4-35.6c-7.1,0.4-8.5,4.8-10.2,8.6c-1.6,3.5-3.4,7.4-3.5,11.1
		c-0.8,30.2-19.4,43.9-45.9,50.5c-2.7,0.9-3.2-0.3-2.8-2.7c22.7-11.5,36.2-28.1,31.7-55.4c-0.7-4.3,1.2-9.3,2.6-13.8
		c5.2-17,15.5-23.9,33.2-23.3c4,0.1,9.5,3.1,11.9-1.6c2.6-5.1,0.8-10.9-2.7-15.5c-2.8-3.7-6.3-6.9-9.6-10.3
		c-10.8-11.1-13.5-18.9-11.4-34.9c-16.5,4.4-32.4,8.9-46.8,17.6c-13.3,8.1-19,21.2-19.6,35.6c-1.3,26.5-16.6,41.1-38.9,50.8
		c-6.8,3-13.7,5.8-20.5,8.7c-2.6,1-3.1-0.3-2.8-2.5c13-8,27.7-13.3,38.8-24.2c4-3.9,11.5-9.5,7.6-14c-4.3-5-13-3.4-19.2,1.3
		c-2.2,1.7-4.6,3.3-6,5.6c-9.5,16.2-19,14.2-31.8,7.3c-19.2-10.4-37.7-10.9-57.1-1.4c-12.8,6.3-25.8,5.3-38.5-1.1
		c-0.7-0.6-0.9-1.1-0.7-1.7s0.5-0.8,0.7-0.8c14.9,3.9,28.7,1.2,41.4-7.4c17.1-11.5,35.3-12,54-5.3c7.9,2.8,13.1,2.8,18-5.5
		c7.6-12.7,20.4-18.3,35-18.3c7.7,0,11.3-2.5,12.4-10.3c0.6-4.5,3.1-8.9,5.3-13c5.2-9.8,4.8-10.6-6.8-10.9
		c-14.8-0.3-28.5,5-42.6,8.2c-11.3,2.6-21.9,1.3-31.9-4.2c-11.7-6.4-21-16.5-33.3-22.1c-12.2-5.5-26-5.4-38.1-11.4
		c20.2,0.7,41.1-0.5,58.6,11.7c18.6,13,36.5,13.8,56.2,3.3c10.7-5.7,22.6-8.9,35-9.3c5.9-0.2,12.5-1.2,17.3,2.3
		c12.9,9.6,24.4,3.8,36.5-1.4c15.7-6.8,32.4-11.5,49.6-23.2c-23.2-1.4-39.7-16.1-60.8-14.6c-2.6,1-3.1-0.3-2.9-2.5
		c10.4-5.4,20.7-1.8,31,0.5c9.5,2.2,18.8,5.5,28.9,4.6c7.8-0.7,11.8-4.3,12.9-12.4c9.8-75.5,27.2-149.8,36.6-225.3
		c2.5-19.9,4.5-39.8,7.4-59.6c1.2-8.1-4.1-12.4-7.9-17.5c-35.4-47.3-78.7-86.5-125.9-121.5c-35-26-71.7-49.5-111.2-70
		c5.1-4.9,15-1.7,16.7-10.5c1.3-6.9-2.2-13-3.6-19.6c33.6,11.5,119.5,79.3,234,184.6c-9-52.8-14-104.1-15.1-155.8
		c-1.1-51.9,0.4-103.6,10.8-157.2c10.6,10.7,20.6,24.3,37.2,3.4c-10.5,54-14.5,103.8-13.2,154.1c1.2,50.2,8.7,99.2,25.8,148.9
		c55.8-71.8,114-139.6,186.2-195.7c2.3,22.9,2.3,22.9,19.2,28.1c-11,8.6-21.9,16.8-32.4,25.4C669.9,350.4,610.4,411.3,568,487.5
		c-5.7,10.2-8.7,20.3-8.7,32.2c-0.3,73.9-1.1,147.8-2.3,221.6c-0.2,9.8,2.1,15.9,11.1,20.5c12,6.1,22.2,14.6,29,26.8
		c4.5,8,12.3,6.1,18.8,4.2c9-2.5,17.7-6.4,26.5-9.6c10-3.7,19.1-1.7,27.7,4.8c-27.1-10.8-42.8,19.2-67.4,17.4
		c6.6,14.2,31.2,24.1,50.9,20.2c9.2-1.8,18.3-4.6,27.2-7.5c12.9-4.2,25.5-3.6,38.1,0.6c5.5,1.8,9.8,4.7,12.2,10.2
		c5.5,12.5,16,15.3,27.6,7.7c3.6-2.3,7.5-4.2,11.5-6c18.3-8.3,28.7-4.2,37.3,14.5C806.7,846.1,805.9,846.2,805,845.3z"/>
	<path class="st0" d="M718.1,217.7c0.4,22.2-8.8,37.8-20.5,52.5c-1.9,2.4-3.7,5.1-7.4,1.7c-25.1-22.7-46.5-56.3-28.2-93.7
		c13.9-28.3,12.2-26.1,33.5-6.5C711.2,186.2,718.1,202.7,718.1,217.7z"/>
	<path class="st0" d="M349.1,446.8c-19.2,0.1-32.7-4.7-45.8-11.4c-5.3-2.7-6.4-5.2-3-10.8c24.5-40.3,74.6-51.1,112.4-23.9
		c3,2.2,5.9,3.7,2.2,8C396.3,430.4,374.6,446,349.1,446.8z"/>
	<path class="st0" d="M681.8,449c-18.8-0.7-37.1-12.6-53.1-29.1c-2.7-2.7-3.3-4.9,0.4-7.5c37-26,78.7-32.7,115.7,1.9
		c3.6,3.4,5.2,5.9,0.5,10.3C730.2,439,706.5,449.2,681.8,449z"/>
	<path class="st0" d="M438.4,512.9c-23.8,0-41-8.4-56.6-21.2c-4.5-3.7-3.8-6.2,0-10.2c32.6-34.6,79.5-35.9,114.1-3.3
		c4.7,4.5,5.6,6.9-0.4,11.4C477.5,503,458.1,512.2,438.4,512.9z"/>
	<path class="st0" d="M554.7,194.5c-1.2-52.5,40.1-71.9,75.3-73.7c7.5-0.4,7,4.3,7.2,9.1c1.7,31.9-15.5,58.4-46.7,71.7
		c-7.5,3.2-15.6,5.1-23.4,7.6c-10.7,3.5-13.3-0.5-12.5-10.1C554.9,196.8,554.7,194.4,554.7,194.5z"/>
	<path class="st0" d="M645.3,520c-24.6-0.6-43-12.4-59.1-28.9c-3.1-3.1-3.7-5.3,0.5-8.2c36.4-25.5,78.1-31.8,114,1.2
		c5.9,5.4,5.8,8.2-0.5,13.2C683.9,510.5,666.1,519.4,645.3,520z"/>
	<path class="st0" d="M407.8,191.1c38.5-1.3,76.9,31,81.3,68.3c0.5,4.2-0.8,5.2-4.7,6.1c-45.9,10.9-88.9-19.4-94.2-66.4
		c-0.6-5.1,0.6-7.3,5.8-7.3C400,191.8,403.9,191.3,407.8,191.1z"/>
	<path class="st0" d="M567.6,83.6c-0.3,22.2-13.6,38.8-29.9,53.6c-2.4,2.2-4.3,2.6-6.8-0.4c-26.8-32.4-37.7-75.6,0.3-111.3
		c2.6-2.4,4.9-5,8.7-1.1C555.8,40.6,567.7,58.5,567.6,83.6z"/>
	<path class="st0" d="M751.2,372c-19,0.3-35.6-8.9-51.3-20.4c-3.5-2.6-4.5-4.7-0.8-8.2c29.7-28.6,70.4-44,112.8-15.1
		c6.5,4.4,6.9,7.1,1.6,13C795.2,361.5,774.7,372.3,751.2,372z"/>
	<path class="st0" d="M281.8,378.5c-23.6-0.2-40.3-8.7-55.3-21.6c-3.9-3.4-3.6-5.5,0-9.2c31.7-32.8,77.8-33.3,109.8-1
		c3.2,3.2,6.5,5.6,0.5,9.8C319.3,369.2,300.5,378,281.8,378.5z"/>
	<path class="st0" d="M434.9,116.9c0.8-8.4,0.1-22.2,8.6-27c7.4-4.2,17.8,4.9,26,10.1c29.7,18.7,39.3,52.9,23.7,84.2
		c-1.2,2.4-1.3,5.8-6.4,4.4C460.2,181.1,434.5,147.1,434.9,116.9z"/>
	<path class="st0" d="M385.7,268.6c-0.2,8.5-0.8,25.1-10.8,29.8c-8.7,4.1-20.1-8.8-28.5-16.8c-21.3-20.2-27-44.8-16.8-70.6
		c1.3-3.2,1.3-7.9,7.6-6.6C362,209.4,385.6,238.2,385.7,268.6z"/>
	<path class="st0" d="M484.9,342.7c-0.4,14.4-0.9,31.4-10.8,35.8c-9.3,4.2-20.8-9.1-29.4-17.4c-20.5-19.6-25.8-43-16.4-69.9
		c2.4-6.8,5.3-8.1,12-4.9C465.2,298.2,484,314.3,484.9,342.7z"/>
	<path class="st0" d="M232.5,236.1c20.3,0,42.7,15.3,50,33.6c1.4,3.4,0.8,4.8-2.2,6.3c-27.2,13.2-62.4,16.1-85.4-17.5
		c-4.3-6.3-3.1-9.1,3.1-12.5C209.3,239.8,220.9,236,232.5,236.1z"/>
	<path class="st0" d="M775,258.7c-15.3,0.6-15.5,0.4-11.9-14.4c7.3-30,29.9-48.8,59.2-49.7c7-0.2,9.6,1.3,9.3,9
		C830.5,236.4,809.2,257.5,775,258.7z"/>
	<path class="st0" d="M555.5,281.8c-14,0.2-14,0.2-10.5-13.3c7.7-29.8,27.5-46.2,56.4-47.5c7.9-0.4,10.1,1.8,9.2,9.9
		C606.7,263.2,587.5,281.3,555.5,281.8z"/>
	<path class="st0" d="M656.6,291.5c-0.2,15.5-6.4,27-14.8,37.7c-2.5,3.2-4.2,3.1-7.5,0.7c-25-18.5-31.3-52.6-14.7-77.5
		c4-6,7-6.7,12.8-2C646,261.5,655.4,274.8,656.6,291.5z"/>
	<path class="st0" d="M600.5,365.5c0.4,14.3-6.3,25.6-14.6,36.3c-1.9,2.5-3.8,3.7-6.7,1.1c-20.2-18.1-35.9-47.9-15-78.4
		c4.4-6.4,7.2-6.2,12.6-1.6C590,334.2,600.2,347,600.5,365.5z"/>
</g>
</svg>
